<svg xmlns="http://www.w3.org/2000/svg" viewBox="0 0 800 800"><g stroke="#171126" stroke-width="16" stroke-linejoin="round"><path class="coloring-region" data-region-id="bg" d="M20 20h760v760H20z" fill="#fff"/><path class="coloring-region" data-region-id="body" d="M215 650Q170 480 265 360L225 185l145 102q35-12 70 0l140-102-35 180q90 120 38 285z" fill="#fff"/><path class="coloring-region" data-region-id="belly" d="M300 645q-35-155 100-190 135 35 100 190z" fill="#fff"/><path class="coloring-region" data-region-id="ear-l" d="M252 222l91 66-68 35z" fill="#fff"/><path class="coloring-region" data-region-id="ear-r" d="M548 222l-91 66 68 35z" fill="#fff"/><circle class="coloring-region" data-region-id="eye-l" cx="340" cy="360" r="25" fill="#fff"/><circle class="coloring-region" data-region-id="eye-r" cx="460" cy="360" r="25" fill="#fff"/><path class="coloring-region" data-region-id="nose" d="M375 410h50l-25 28z" fill="#fff"/></g><g fill="none" stroke="#171126" stroke-width="13" stroke-linecap="round" pointer-events="none"><path d="M400 438q-18 32-50 15m50-15q18 32 50 15M300 420l-100-18m100 53-100 25m300-60 100-18m-100 53 100 25"/></g></svg>
